# xmcd
#
# Track frame offsets:
#	150
#	9575
#	18652
#	30182
#	44805
#	54252
#	70072
#	80322
#	91337
#	102645
#	117297
#	129902
#	140622
#	152637
#	163960
#	174078
#	189748
#	197463
#	210511
#	222221
#	231298
#	240603
#	251708
#	263723
#	281328
#	289368
#	305068
#	318793
#	329673
#
# Disc length: 4530 seconds
#
# Revision: 0
# Processed by: cddbd v1.5.1PL2 Copyright (c) Steve Scherf et al.
# Submitted via: audiograbber 1.83.01
#
DISCID=a011b01d
DTITLE=The DublinersThe Dubliners - Original Dubliners 1Original Dubliners 2
DYEAR=1900
DGENRE=
TTITLE0=(The Bonny) Shoals Of HerringInstrumental Medley: Paddy's Gone To Franc
TTITLE0=e-Skylark
TTITLE1=A Muirsheen DurkinInstrumental Medley: The Piper's Chair/Bill Hart's Ji
TTITLE1=g/The Nights Of St Patrick
TTITLE2=A Nation Once AgainKelly The Boy From Killan
TTITLE3=A Pub With No BeerLimerick Rake
TTITLE4=All For Me GrogMaid Of The Sweet Brown Knowe
TTITLE5=Blacl Velvet BandMaids When You're Young Never Wed An Old Man
TTITLE6=Carolan ConcertoMaloney Wants A Drink
TTITLE7=Colonel Fraser and O'Rouke's ReelMany Young Men Of Twenty
TTITLE8=Come And Join The British ArmyMcCafferty
TTITLE9=Cork HornpipeMolly Bawn
TTITLE10=Croppy BoyMormon Braes
TTITLE11=Darby O'LearyMrs McGrath
TTITLE12=Drink It Up MenNancy Whiskey
TTITLE13=Flop Eared Mule (Donkey Reel)Navvy Boots
TTITLE14=Gentleman SoldierNet Hauling Song
TTITLE15=Go To Sea No MorePeggy Gordon
TTITLE16=I Wish I Were Back In LiverpoolPoor Old Dicey Riley
TTITLE17=I'm A RoverPoor Paddy On The Railway
TTITLE18=Raffling Roaring WillieQuare Bungle Ryr
TTITLE19=Seven Deadly SinsThe Old Alarm Clock
TTITLE20=Seven Druken NightsThe Old Triangle
TTITLE21=Sullivan JohnThe Parlin' Glass
TTITLE22=The Dundee WeaverThe Rising Of The Moon
TTITLE23=The Fairmoye Lasses And Sporting PaddyThe Travelling People
TTITLE24=The Galway RacesTibby Dunbar
TTITLE25=The Inniskillen DragoonsWeila Waila
TTITLE26=The Irish NavyWhiskey In The Jar
TTITLE27=Whiskey On A Sunday
TTITLE28=Zoological Gardens
EXTD=
EXTT0=
EXTT1=
EXTT2=
EXTT3=
EXTT4=
EXTT5=
EXTT6=
EXTT7=
EXTT8=
EXTT9=
EXTT10=
EXTT11=
EXTT12=
EXTT13=
EXTT14=
EXTT15=
EXTT16=
EXTT17=
EXTT18=
EXTT19=
EXTT20=
EXTT21=
EXTT22=
EXTT23=
EXTT24=
EXTT25=
EXTT26=
EXTT27=
EXTT28=
PLAYORDER=
